<?xml version="1.0" encoding="UTF-8" standalone="no"?><!DOCTYPE svg PUBLIC "-//W3C//DTD SVG 1.1//EN" "http://www.w3.org/Graphics/SVG/1.1/DTD/svg11.dtd"><svg width="100%" height="100%" viewBox="0 0 417 417" version="1.1" xmlns="http://www.w3.org/2000/svg" xmlns:xlink="http://www.w3.org/1999/xlink" xml:space="preserve" xmlns:serif="http://www.serif.com/" style="fill-rule:evenodd;clip-rule:evenodd;stroke-linejoin:round;stroke-miterlimit:2;"><path d="M416.667,122.673c-0,-67.705 -54.968,-122.673 -122.673,-122.673l-171.321,0c-67.705,0 -122.673,54.968 -122.673,122.673l0,171.321c0,67.705 54.968,122.673 122.673,122.673l171.321,-0c67.705,-0 122.673,-54.968 122.673,-122.673l-0,-171.321Zm-330.834,216.91l245,0c0,0 -9.268,-122.5 -122.5,-122.5c-113.231,0 -122.5,122.5 -122.5,122.5Zm122.5,-262.5c33.805,0 61.25,27.446 61.25,61.25c0,33.805 -27.445,61.25 -61.25,61.25c-33.804,0 -61.25,-27.445 -61.25,-61.25c0,-33.804 27.446,-61.25 61.25,-61.25Z" style="fill:#00c4f4;"/></svg>