<?xml version="1.0" standalone="no"?>
<!DOCTYPE svg PUBLIC "-//W3C//DTD SVG 20010904//EN"
 "http://www.w3.org/TR/2001/REC-SVG-20010904/DTD/svg10.dtd">
<svg version="1.0" xmlns="http://www.w3.org/2000/svg"
 width="700.000000pt" height="700.000000pt" viewBox="0 0 700.000000 700.000000"
 preserveAspectRatio="xMidYMid meet">
<metadata>
Created by potrace 1.14, written by Peter Selinger 2001-2017
</metadata>
<g transform="translate(0.000000,700.000000) scale(0.100000,-0.100000)"
fill="#000000" stroke="none">
<path d="M1800 6984 c-661 -90 -1238 -485 -1553 -1065 -67 -124 -160 -361
-182 -466 -2 -10 -10 -47 -19 -83 -18 -78 -24 -113 -33 -205 -11 -93 -10
-3228 0 -3329 4 -44 9 -82 11 -85 2 -3 7 -28 10 -56 25 -187 157 -529 278
-720 106 -167 271 -356 421 -483 83 -70 240 -180 312 -219 22 -11 56 -30 75
-40 70 -39 234 -104 343 -137 158 -48 282 -72 432 -83 85 -6 2981 -9 3150 -3
264 10 539 82 800 210 100 49 296 167 315 190 3 3 25 21 50 40 296 228 545
578 669 939 18 52 34 102 36 110 2 9 10 43 19 76 8 33 18 74 21 90 2 17 7 41
10 55 8 41 15 99 23 190 8 98 7 3142 -1 3210 -3 25 -9 72 -12 105 -4 33 -8 62
-10 65 -2 3 -6 25 -10 50 -9 60 -69 267 -102 348 -123 310 -318 587 -564 801
-106 92 -110 95 -218 167 -226 151 -497 261 -761 309 -47 8 -103 18 -125 22
-22 4 -769 8 -1660 9 -1352 2 -1637 0 -1725 -12z m1850 -1289 c263 -42 504
-186 667 -397 70 -91 144 -241 170 -343 37 -146 47 -331 24 -453 -92 -492
-514 -849 -1006 -850 -400 -1 -763 225 -931 578 -36 74 -69 168 -79 219 -39
207 -31 376 26 551 120 363 439 633 820 693 88 14 232 15 309 2z m75 -2349
c152 -17 171 -20 290 -48 240 -55 465 -159 665 -306 88 -65 285 -259 357 -352
146 -189 275 -433 368 -696 39 -110 106 -358 120 -444 3 -19 10 -59 15 -89 6
-30 10 -67 10 -83 l0 -28 -2055 0 -2056 0 6 43 c57 404 182 773 368 1082 152
254 323 439 555 604 177 126 449 240 667 282 28 5 59 11 71 13 148 29 456 39
619 22z"/>
</g>
</svg>
